## Post #1
- Username: mono24
- Rank: double-veteran
- Number of posts: 848
- Joined date: Sat Nov 06, 2010 7:27 am
- Post datetime: 2016-04-01T17:45:58+00:00
- Post Title: PS3 Stereoscopic 3D Full Frame Sequential format

Hello guys,

I have the following video format, it is a Sony/PS3 Stereoscopic Full Frame Sequential format at 1280x720.
[https://mega.nz/#!Hok0jK6T!RyuRrkmGAMtu ... WT3GvrqdV0](https://mega.nz/#!Hok0jK6T!RyuRrkmGAMtuDE-A82vwgO-jpOeUJ5eZTWT3GvrqdV0)
Not supported yet on the PS4, who knows maybe in the future they might add full frame sequential but at 1920x1080.
Anyway, with media info, it shows the following.

```
Codec ID                    : MGSV (MGSV/mp42/isom)
File size                   : 137 MiB
Duration                    : 3mn 5s
Overall bit rate mode       : Variable
Overall bit rate            : 6 165 Kbps
Encoded date                : UTC 2010-10-09 00:50:34
Tagged date                 : UTC 2010-10-09 00:50:34

Video
ID                          : 1
Format                      : AVC
Format/Info                 : Advanced Video Codec
Format profile              : High@L4
Format settings, CABAC      : Yes
Format settings, ReFrames   : 4 frames
Codec ID                    : avc1
Codec ID/Info               : Advanced Video Coding
Duration                    : 3mn 5s
Bit rate mode               : Variable
Bit rate                    : 5 890 Kbps
Width                       : 1 280 pixels
Height                      : 720 pixels
Display aspect ratio        : 16:9
Frame rate mode             : Constant
Frame rate                  : 47.952 (48000/1001) fps
Color space                 : YUV
Chroma subsampling          : 4:2:0
Bit depth                   : 8 bits
Scan type                   : Progressive
Bits/(Pixel*Frame)          : 0.133
Stream size                 : 131 MiB (96%)
Language                    : English
Encoded date                : UTC 2010-10-09 00:50:34
Tagged date                 : UTC 2010-10-09 00:50:34
Color range                 : Limited
Color primaries             : BT.709
Transfer characteristics    : BT.709
Matrix coefficients         : BT.709

Audio
ID                          : 2
Format                      : AAC
Format/Info                 : Advanced Audio Codec
Format profile              : LC
Codec ID                    : 40
Duration                    : 3mn 5s
Bit rate mode               : Variable
Bit rate                    : 256 Kbps
Maximum bit rate            : 384 Kbps
Channel(s)                  : 2 channels
Channel positions           : Front: L R
Sampling rate               : 48.0 KHz
Frame rate                  : 46.875 fps (1024 spf)
Compression mode            : Lossy
Stream size                 : 5.81 MiB (4%)
Language                    : English
Encoded date                : UTC 2010-10-09 00:50:34
Tagged date                 : UTC 2010-10-09 00:50:34

Other
ID                          : 3
Type                        : Object description
Format                      : System
Codec ID                    : 1
Encoded date                : UTC 2010-10-09 00:50:34
Tagged date                 : UTC 2010-10-09 00:50:34


```


And it only plays on PS3, both 2D at 23.976fps, or Stereoscopic 3D at doubled the frame rate 47.952fps one view per eye, full 1280x720, it has some 3D descriptors inside that triggers automatic 3D playback on PS3 if you choose to, if not it will play in 2D.
Any of you with more knowledge in video formats can you please take a look and see if the streams can be extracted.

Thank you in advance.

Cheers.
